<?xml version="1.0" encoding="UTF-8"?>
<!DOCTYPE svg PUBLIC "-//W3C//DTD SVG 1.1//EN" "http://www.w3.org/Graphics/SVG/1.1/DTD/svg11.dtd">
<!-- Creator: CorelDRAW (Evaluation Version) -->
<svg xmlns="http://www.w3.org/2000/svg" xml:space="preserve" width="0.879512in" height="0.855004in" version="1.1" style="shape-rendering:geometricPrecision; text-rendering:geometricPrecision; image-rendering:optimizeQuality; fill-rule:evenodd; clip-rule:evenodd"
viewBox="0 0 13.71 13.33"
 xmlns:xlink="http://www.w3.org/1999/xlink"
 xmlns:xodm="http://www.corel.com/coreldraw/odm/2003">
 <defs>
  <style type="text/css">
   <![CDATA[
    .str1 {stroke:black;stroke-width:0.12;stroke-miterlimit:22.9256}
    .str0 {stroke:black;stroke-width:0.12;stroke-miterlimit:22.9256}
    .fil0 {fill:black}
    .fil1 {fill:white}
    .fil2 {fill:black;fill-rule:nonzero}
   ]]>
  </style>
 </defs>
 <g id="Layer_x0020_1">
  <metadata id="CorelCorpID_0Corel-Layer"/>
  <g id="_456888792">
   <path class="fil0 str0" d="M0.06 13.27l0 -6.6c0,-3.63 2.97,-6.6 6.6,-6.6l6.99 0 0 13.21c-9.15,0 -0.29,0 -13.59,0z"/>
   <path class="fil1 str1" d="M13.35 12.97l-1.04 0c-0.14,-3.89 -1.58,-4.11 -3.63,-6.04 -0.28,-0.26 -0.45,-0.39 -0.48,-0.82 -0.09,-1.12 1.72,-1.44 1.96,0.07 0.57,0.23 1.21,0.51 1.78,0.75 0.06,-0.02 0.11,-0.07 0.13,-0.13 -0.15,-0.23 -0.31,-0.45 -0.48,-0.65 -0.19,-3.77 -5.87,-3.02 -4.7,0.7 0.69,2.17 4.19,2.37 4.04,6.12l-1.1 0c-0.31,-3.86 -2.75,-4.73 -5.77,-4.73l0.25 1.44c2.41,0 3.83,0.91 4.05,3.29l-1.22 0 -0.22 -1.26c-2.47,0 -3.9,-0.95 -4.06,-3.47 -0.49,0 -0.97,-0 -1.46,-0 0.19,3.07 1.67,4.31 3.73,4.73l-4.76 0 0 -6.3c0,-3.47 2.84,-6.3 6.3,-6.3l6.69 0 0 12.61z"/>
   <path class="fil2" d="M9.5 1.44l0.23 -0.04c0.02,0.07 0.07,0.1 0.15,0.1 0.06,0 0.09,-0.02 0.09,-0.05 0,-0.02 -0.01,-0.03 -0.02,-0.04 -0.01,-0.01 -0.04,-0.02 -0.08,-0.03 -0.14,-0.03 -0.24,-0.06 -0.28,-0.11 -0.04,-0.04 -0.06,-0.1 -0.06,-0.16 0,-0.08 0.03,-0.14 0.09,-0.19 0.06,-0.05 0.14,-0.08 0.25,-0.08 0.17,0 0.28,0.07 0.33,0.2l-0.21 0.06c-0.02,-0.05 -0.07,-0.08 -0.13,-0.08 -0.05,0 -0.08,0.02 -0.08,0.05 0,0.02 0.01,0.03 0.02,0.04 0.01,0.01 0.04,0.02 0.07,0.02 0.1,0.02 0.17,0.04 0.21,0.05 0.04,0.02 0.08,0.04 0.1,0.08 0.03,0.04 0.04,0.08 0.04,0.14 0,0.08 -0.03,0.15 -0.1,0.2 -0.07,0.05 -0.16,0.08 -0.26,0.08 -0.2,0 -0.32,-0.08 -0.37,-0.25zm1.84 -0.58l-0.22 0.82 -0.21 0 -0.12 -0.45 -0.11 0.45 -0.22 0 -0.22 -0.82 0.24 0 0.11 0.47 0.11 -0.47 0.2 0 0.12 0.47 0.11 -0.47 0.19 0zm0.49 0.82l-0.05 -0.16 -0.22 0 -0.05 0.16 -0.2 0 0.25 -0.82 0.27 0 0.26 0.82 -0.26 0zm-0.22 -0.34l0.13 0 -0.07 -0.24 -0.07 0.24zm1.26 0.34l-0.21 0 -0.23 -0.36c-0.03,-0.05 -0.06,-0.1 -0.09,-0.17 0.01,0.05 0.02,0.1 0.02,0.13l0 0.4 -0.2 0 0 -0.82 0.24 0 0.19 0.3c0.04,0.06 0.07,0.11 0.09,0.16 -0.01,-0.07 -0.02,-0.14 -0.02,-0.22l0 -0.24 0.21 0 0 0.82z"/>
   <path class="fil2" d="M9.95 2.13l0 0.62 -0.24 0 0 -0.62 -0.17 0 0 -0.2 0.58 0 0 0.2 -0.17 0zm0.94 0.43l0 0.2 -0.62 0 0 -0.82 0.62 0 0 0.19 -0.37 0 0 0.12 0.3 0 0 0.18 -0.3 0 0 0.13 0.37 0zm0.64 0.2l-0.05 -0.16 -0.22 0 -0.05 0.16 -0.2 0 0.25 -0.82 0.27 0 0.26 0.82 -0.26 0zm-0.22 -0.34l0.13 0 -0.07 -0.24 -0.07 0.24zm1.53 -0.48l0 0.82 -0.23 0 0 -0.59 -0.15 0.59 -0.16 0 -0.16 -0.59 0 0.59 -0.19 0 0 -0.82 0.33 0 0.12 0.44 0.11 -0.44 0.33 0z"/>
   <path class="fil2" d="M2.12 7.13c0.1,0 0.2,0.04 0.27,0.11 0.07,0.07 0.11,0.16 0.11,0.27 0,0.1 -0.04,0.2 -0.11,0.27 -0.07,0.07 -0.16,0.11 -0.27,0.11 -0.1,0 -0.2,-0.04 -0.27,-0.11 -0.07,-0.07 -0.11,-0.16 -0.11,-0.27 0,-0.1 0.04,-0.2 0.11,-0.27 0.07,-0.07 0.16,-0.11 0.27,-0.11zm0.23 0.15c-0.06,-0.06 -0.14,-0.1 -0.23,-0.1 -0.09,0 -0.17,0.04 -0.23,0.1 -0.06,0.06 -0.1,0.14 -0.1,0.23 0,0.09 0.04,0.17 0.1,0.23 0.06,0.06 0.14,0.1 0.23,0.1 0.09,0 0.17,-0.04 0.23,-0.1 0.06,-0.06 0.1,-0.14 0.1,-0.23 0,-0.09 -0.04,-0.17 -0.1,-0.23z"/>
   <path class="fil2" d="M1.93 7.72l0 -0.43 0.19 0c0.04,0 0.07,0 0.09,0.01 0.02,0.01 0.04,0.02 0.05,0.04 0.01,0.02 0.02,0.04 0.02,0.06 0,0.03 -0.01,0.06 -0.03,0.08 -0.02,0.02 -0.05,0.03 -0.09,0.04 0.01,0.01 0.03,0.01 0.03,0.02 0.02,0.02 0.03,0.03 0.05,0.06l0.07 0.12 -0.07 0 -0.06 -0.09c-0.02,-0.03 -0.03,-0.05 -0.04,-0.06 -0.01,-0.01 -0.02,-0.02 -0.03,-0.03 -0.01,-0.01 -0.02,-0.01 -0.03,-0.01 -0.01,-0 -0.02,-0 -0.03,-0l-0.07 0 0 0.19 -0.06 0zm0.06 -0.24l0.12 0c0.03,0 0.05,-0 0.06,-0.01 0.01,-0.01 0.03,-0.01 0.03,-0.03 0.01,-0.01 0.01,-0.02 0.01,-0.04 0,-0.02 -0.01,-0.04 -0.02,-0.05 -0.01,-0.01 -0.04,-0.02 -0.07,-0.02l-0.14 0 0 0.14z"/>
  </g>
 </g>
</svg>
