<?xml version="1.0" encoding="UTF-8"?>
<!DOCTYPE svg PUBLIC "-//W3C//DTD SVG 1.1//EN" "http://www.w3.org/Graphics/SVG/1.1/DTD/svg11.dtd">
<!-- Creator: CorelDRAW (Evaluation Version) -->
<svg xmlns="http://www.w3.org/2000/svg" xml:space="preserve" width="0.879512in" height="0.855004in" version="1.1" style="shape-rendering:geometricPrecision; text-rendering:geometricPrecision; image-rendering:optimizeQuality; fill-rule:evenodd; clip-rule:evenodd"
viewBox="0 0 14.24 13.84"
 xmlns:xlink="http://www.w3.org/1999/xlink"
 xmlns:xodm="http://www.corel.com/coreldraw/odm/2003">
 <defs>
  <style type="text/css">
   <![CDATA[
    .str0 {stroke:white;stroke-width:0.13;stroke-miterlimit:22.9256}
    .str1 {stroke:black;stroke-width:0.13;stroke-miterlimit:22.9256}
    .fil0 {fill:white}
    .fil1 {fill:#050202}
    .fil2 {fill:white;fill-rule:nonzero}
   ]]>
  </style>
 </defs>
 <g id="Layer_x0020_1">
  <metadata id="CorelCorpID_0Corel-Layer"/>
  <g id="_128820384">
   <path class="fil0 str0" d="M0.06 13.78l0 -6.86c0,-3.77 3.08,-6.86 6.86,-6.86l7.25 0 0 13.71c-9.5,0 -0.3,0 -14.11,0z"/>
   <path class="fil1 str1" d="M13.86 13.47l-1.08 0c-0.15,-4.04 -1.64,-4.27 -3.77,-6.27 -0.29,-0.27 -0.46,-0.41 -0.5,-0.85 -0.1,-1.16 1.78,-1.5 2.03,0.07 0.59,0.23 1.25,0.53 1.85,0.78 0.07,-0.02 0.11,-0.07 0.13,-0.14 -0.15,-0.24 -0.32,-0.46 -0.49,-0.68 -0.2,-3.91 -6.09,-3.14 -4.88,0.72 0.71,2.26 4.35,2.46 4.19,6.36l-1.14 0c-0.32,-4.01 -2.86,-4.91 -5.99,-4.91l0.26 1.49c2.51,0 3.98,0.94 4.2,3.42l-1.27 0 -0.23 -1.31c-2.57,0 -4.05,-0.99 -4.22,-3.6 -0.51,0 -1.01,-0 -1.52,-0 0.2,3.18 1.74,4.48 3.87,4.91l-4.94 0 0 -6.55c0,-3.6 2.95,-6.55 6.55,-6.55l6.94 0 0 13.09z"/>
   <path class="fil2" d="M9.86 1.5l0.24 -0.04c0.02,0.07 0.07,0.1 0.16,0.1 0.07,0 0.1,-0.02 0.1,-0.05 0,-0.02 -0.01,-0.03 -0.02,-0.04 -0.02,-0.01 -0.04,-0.02 -0.08,-0.03 -0.15,-0.03 -0.24,-0.07 -0.29,-0.11 -0.04,-0.05 -0.06,-0.1 -0.06,-0.16 0,-0.08 0.03,-0.15 0.09,-0.2 0.06,-0.05 0.15,-0.08 0.26,-0.08 0.17,0 0.29,0.07 0.34,0.21l-0.22 0.07c-0.02,-0.06 -0.07,-0.09 -0.14,-0.09 -0.06,0 -0.09,0.02 -0.09,0.05 0,0.02 0.01,0.03 0.02,0.04 0.01,0.01 0.04,0.02 0.07,0.02 0.1,0.02 0.17,0.04 0.22,0.06 0.04,0.02 0.08,0.04 0.11,0.08 0.03,0.04 0.04,0.09 0.04,0.14 0,0.09 -0.03,0.16 -0.1,0.21 -0.07,0.05 -0.16,0.08 -0.28,0.08 -0.21,0 -0.34,-0.09 -0.38,-0.26zm1.91 -0.6l-0.23 0.85 -0.22 0 -0.12 -0.47 -0.11 0.47 -0.23 0 -0.23 -0.85 0.25 0 0.12 0.49 0.12 -0.49 0.2 0 0.13 0.49 0.12 -0.49 0.2 0zm0.51 0.85l-0.05 -0.17 -0.23 0 -0.05 0.17 -0.21 0 0.26 -0.85 0.28 0 0.27 0.85 -0.27 0zm-0.23 -0.35l0.14 0 -0.07 -0.25 -0.07 0.25zm1.3 0.35l-0.21 0 -0.23 -0.38c-0.03,-0.05 -0.06,-0.11 -0.09,-0.18 0.01,0.05 0.02,0.1 0.02,0.14l0 0.41 -0.21 0 0 -0.85 0.25 0 0.2 0.31c0.04,0.06 0.07,0.12 0.09,0.16 -0.01,-0.07 -0.02,-0.15 -0.02,-0.22l0 -0.25 0.21 0 0 0.85z"/>
   <path class="fil2" d="M10.32 2.21l0 0.65 -0.25 0 0 -0.65 -0.18 0 0 -0.2 0.6 0 0 0.2 -0.18 0zm0.98 0.44l0 0.2 -0.64 0 0 -0.85 0.64 0 0 0.2 -0.38 0 0 0.12 0.31 0 0 0.19 -0.31 0 0 0.14 0.38 0zm0.66 0.2l-0.05 -0.17 -0.23 0 -0.05 0.17 -0.21 0 0.26 -0.85 0.28 0 0.27 0.85 -0.27 0zm-0.23 -0.35l0.14 0 -0.07 -0.25 -0.07 0.25zm1.59 -0.5l0 0.85 -0.24 0 0 -0.61 -0.16 0.61 -0.17 0 -0.16 -0.61 0 0.61 -0.2 0 0 -0.85 0.34 0 0.12 0.45 0.12 -0.45 0.34 0z"/>
   <path class="fil2" d="M2.2 7.4c0.11,0 0.21,0.04 0.28,0.11 0.07,0.07 0.11,0.17 0.11,0.28 0,0.11 -0.04,0.21 -0.11,0.28 -0.07,0.07 -0.17,0.11 -0.28,0.11 -0.11,0 -0.21,-0.04 -0.28,-0.11 -0.07,-0.07 -0.11,-0.17 -0.11,-0.28 0,-0.11 0.04,-0.21 0.11,-0.28 0.07,-0.07 0.17,-0.11 0.28,-0.11zm0.24 0.15c-0.06,-0.06 -0.15,-0.1 -0.24,-0.1 -0.09,0 -0.18,0.04 -0.24,0.1 -0.06,0.06 -0.1,0.15 -0.1,0.24 0,0.09 0.04,0.18 0.1,0.24 0.06,0.06 0.15,0.1 0.24,0.1 0.09,0 0.18,-0.04 0.24,-0.1 0.06,-0.06 0.1,-0.15 0.1,-0.24 0,-0.09 -0.04,-0.18 -0.1,-0.24z"/>
   <path class="fil2" d="M2.01 8.01l0 -0.44 0.2 0c0.04,0 0.07,0 0.09,0.01 0.02,0.01 0.04,0.02 0.05,0.04 0.01,0.02 0.02,0.04 0.02,0.07 0,0.03 -0.01,0.06 -0.03,0.08 -0.02,0.02 -0.05,0.04 -0.09,0.04 0.02,0.01 0.03,0.01 0.04,0.02 0.02,0.02 0.03,0.04 0.05,0.06l0.08 0.12 -0.07 0 -0.06 -0.09c-0.02,-0.03 -0.03,-0.05 -0.04,-0.06 -0.01,-0.01 -0.02,-0.02 -0.03,-0.03 -0.01,-0.01 -0.02,-0.01 -0.03,-0.01 -0.01,-0 -0.02,-0 -0.03,-0l-0.07 0 0 0.2 -0.06 0zm0.06 -0.25l0.13 0c0.03,0 0.05,-0 0.06,-0.01 0.02,-0.01 0.03,-0.01 0.03,-0.03 0.01,-0.01 0.01,-0.03 0.01,-0.04 0,-0.02 -0.01,-0.04 -0.02,-0.05 -0.02,-0.01 -0.04,-0.02 -0.07,-0.02l-0.14 0 0 0.15z"/>
  </g>
 </g>
</svg>
